<svg width="236" height="78" viewBox="0 0 236 78" fill="none" xmlns="http://www.w3.org/2000/svg">
<path fill-rule="evenodd" clip-rule="evenodd" d="M36.8788 10.8011C-5.76518 -6.31166 8.5876 47.2699 19.1242 65.5188C28.2942 81.402 47.0084 48.4944 35.6107 45.4386C33.9232 45.1093 29.1799 43.8803 28.2808 42.7106C27.6423 41.8774 27.8821 40.5427 28.5162 39.2925C28.8517 38.6316 29.0127 38.2256 29.0547 37.9125C29.1609 37.1084 28.3898 36.6449 28.4877 35.9913C28.6001 35.2605 29.4041 35.1894 29.4796 34.7119C29.5406 34.33 28.8388 33.7597 29.0284 33.0552C29.2655 32.1723 30.8294 31.8284 30.6337 30.8354C30.1344 28.3052 25.9945 27.9591 31.4903 25.283C35.9193 23.1275 35.5481 21.5211 35.5984 19.4226C35.7141 14.6033 45.1727 3.6272 55.0456 2.25728C43.1748 9.89581 43.5674 21.6569 45.6625 32.5011C47.9466 44.3433 38.766 69.4077 29.8447 75.504C24.3159 79.2828 18.4532 75.0053 13.9241 67.3522C5.41164 52.9659 -4.89403 27.183 2.57955 8.31566C6.83467 -2.42111 23.6824 -3.94199 36.8788 10.8011Z" fill="#00BCD4"/>
<path fill-rule="evenodd" clip-rule="evenodd" d="M70.4877 59.2624C78.4461 62.9741 70.6549 69.3333 45.2796 62.5183C53.616 63.8575 58.5499 63.6713 63.0304 63.0484C66.5418 62.5614 68.7762 62.0269 69.5042 59.3435C64.1241 59.7014 56.1847 58.8828 45.2114 55.9299C55.6837 57.5101 61.0471 57.5006 66.6447 56.4885C70.8316 55.7342 73.5625 54.9609 74.5505 51.6451C67.81 52.5476 58.1037 52.206 45.4345 49.4975C56.977 50.5548 66.2438 49.829 72.2882 48.2562C77.2819 46.9556 80.3326 45.7618 80.7811 40.7703C88.995 43.618 87.5032 49.3303 76.3789 51.3594C80.4702 54.054 79.3508 58.379 70.4877 59.2624ZM66.3053 65.6641C70.6974 67.7861 68.5754 70.1351 63.4318 70.725C57.913 79.6669 53.3487 79.5662 48.9756 68.5337C47.9686 68.1467 46.9537 67.7078 45.9383 67.2063C47.8131 67.8655 66.974 71.7801 66.3053 65.6641ZM69.3415 46.4534C73.1655 31.7255 73.8913 15.2026 69.2246 10.2492C65.0522 5.82126 55.578 5.20507 49.1232 13.6773C49.7433 7.93427 69.3432 -10.0569 78.0776 9.25163C81.8921 17.6802 80.6268 29.8686 77.6169 41.0951C76.4628 45.4034 72.9223 45.7277 69.3415 46.4534Z" fill="#A0B4C3"/>
<path d="M112.905 5C115.156 5 117.123 5.43674 118.806 6.31024C120.509 7.16341 121.817 8.40255 122.73 10.0276C123.663 11.6324 124.129 13.5115 124.129 15.6647C124.129 17.818 123.663 19.6868 122.73 21.2713C121.817 22.8558 120.509 24.0746 118.806 24.9278C117.123 25.7606 115.156 26.1771 112.905 26.1771H106V5H112.905ZM112.905 23.3433C115.379 23.3433 117.275 22.6729 118.593 21.3322C119.911 19.9915 120.57 18.1024 120.57 15.6647C120.57 13.2067 119.911 11.2871 118.593 9.90576C117.275 8.52443 115.379 7.83376 112.905 7.83376H109.468V23.3433H112.905Z" fill="#00BCD4"/>
<path d="M131.034 11.8254C131.541 10.9722 132.21 10.312 133.041 9.84482C133.893 9.3573 134.897 9.11353 136.053 9.11353V12.7091H135.171C133.812 12.7091 132.778 13.0544 132.068 13.7451C131.378 14.4357 131.034 15.6342 131.034 17.3406V26.1771H127.566V9.38777H131.034V11.8254Z" fill="#00BCD4"/>
<path d="M140.639 26.3904C140.011 26.3904 139.484 26.1771 139.058 25.7505C138.632 25.3239 138.419 24.7957 138.419 24.166C138.419 23.5363 138.632 23.0081 139.058 22.5815C139.484 22.1549 140.011 21.9416 140.639 21.9416C141.248 21.9416 141.765 22.1549 142.191 22.5815C142.617 23.0081 142.83 23.5363 142.83 24.166C142.83 24.7957 142.617 25.3239 142.191 25.7505C141.765 26.1771 141.248 26.3904 140.639 26.3904Z" fill="#00BCD4"/>
<path d="M123.369 71.8829H119.901L109.468 56.0687V71.8829H106V50.6754H109.468L119.901 66.4592V50.6754H123.369V71.8829Z" fill="#00BCD4"/>
<path d="M126.767 63.4121C126.767 61.7261 127.111 60.233 127.801 58.9329C128.511 57.6329 129.464 56.6273 130.66 55.9164C131.877 55.1851 133.215 54.8194 134.675 54.8194C135.993 54.8194 137.139 55.0835 138.113 55.6116C139.106 56.1195 139.897 56.7594 140.485 57.5313V55.0936H143.983V71.8829H140.485V69.3844C139.897 70.1766 139.096 70.8368 138.082 71.3649C137.068 71.8931 135.912 72.1572 134.614 72.1572C133.175 72.1572 131.857 71.7915 130.66 71.0602C129.464 70.3086 128.511 69.2726 127.801 67.9522C127.111 66.6115 126.767 65.0981 126.767 63.4121ZM140.485 63.4731C140.485 62.3152 140.242 61.3096 139.755 60.4565C139.289 59.6033 138.67 58.9533 137.9 58.5064C137.129 58.0594 136.298 57.836 135.405 57.836C134.513 57.836 133.682 58.0594 132.911 58.5064C132.14 58.9329 131.512 59.5728 131.025 60.426C130.559 61.2589 130.326 62.2542 130.326 63.4121C130.326 64.57 130.559 65.5857 131.025 66.4592C131.512 67.3327 132.14 68.003 132.911 68.4702C133.702 68.9171 134.533 69.1406 135.405 69.1406C136.298 69.1406 137.129 68.9171 137.9 68.4702C138.67 68.0233 139.289 67.3733 139.755 66.5201C140.242 65.6466 140.485 64.6309 140.485 63.4731Z" fill="#00BCD4"/>
<path d="M152.006 57.5313C152.513 56.6781 153.182 56.0179 154.013 55.5507C154.865 55.0632 155.869 54.8194 157.025 54.8194V58.4149H156.142C154.784 58.4149 153.75 58.7603 153.04 59.4509C152.35 60.1416 152.006 61.3401 152.006 63.0465V71.8829H148.538V55.0936H152.006V57.5313Z" fill="#00BCD4"/>
<path d="M161.976 52.8693C161.348 52.8693 160.82 52.656 160.395 52.2294C159.969 51.8028 159.756 51.2747 159.756 50.6449C159.756 50.0152 159.969 49.4871 160.395 49.0605C160.82 48.6339 161.348 48.4206 161.976 48.4206C162.585 48.4206 163.102 48.6339 163.528 49.0605C163.954 49.4871 164.166 50.0152 164.166 50.6449C164.166 51.2747 163.954 51.8028 163.528 52.2294C163.102 52.656 162.585 52.8693 161.976 52.8693ZM163.68 55.0936V71.8829H160.212V55.0936H163.68Z" fill="#00BCD4"/>
<path d="M188.521 54.8194C189.84 54.8194 191.016 55.0937 192.05 55.6421C193.104 56.1906 193.926 57.0031 194.514 58.0798C195.122 59.1564 195.426 60.4565 195.426 61.98V71.8829H191.989V62.498C191.989 60.9948 191.614 59.8471 190.864 59.0548C190.113 58.2423 189.089 57.836 187.791 57.836C186.494 57.836 185.459 58.2423 184.689 59.0548C183.938 59.8471 183.563 60.9948 183.563 62.498V71.8829H180.126V62.498C180.126 60.9948 179.751 59.8471 179.001 59.0548C178.25 58.2423 177.226 57.836 175.928 57.836C174.63 57.836 173.596 58.2423 172.826 59.0548C172.075 59.8471 171.7 60.9948 171.7 62.498V71.8829H168.232V55.0936H171.7V57.0133C172.268 56.3226 172.988 55.7843 173.86 55.3984C174.732 55.0124 175.665 54.8194 176.658 54.8194C177.997 54.8194 179.193 55.1038 180.248 55.6726C181.302 56.2414 182.113 57.0641 182.681 58.1407C183.188 57.125 183.979 56.3226 185.054 55.7335C186.129 55.1241 187.284 54.8194 188.521 54.8194Z" fill="#00BCD4"/>
<path d="M198.683 63.4121C198.683 61.7261 199.028 60.233 199.717 58.9329C200.427 57.6329 201.38 56.6273 202.577 55.9164C203.793 55.1851 205.132 54.8194 206.592 54.8194C207.91 54.8194 209.056 55.0835 210.029 55.6116C211.023 56.1195 211.814 56.7594 212.402 57.5313V55.0936H215.9V71.8829H212.402V69.3844C211.814 70.1766 211.013 70.8368 209.999 71.3649C208.985 71.8931 207.829 72.1572 206.531 72.1572C205.091 72.1572 203.773 71.7915 202.577 71.0602C201.38 70.3086 200.427 69.2726 199.717 67.9522C199.028 66.6115 198.683 65.0981 198.683 63.4121ZM212.402 63.4731C212.402 62.3152 212.158 61.3096 211.672 60.4565C211.205 59.6033 210.587 58.9533 209.816 58.5064C209.045 58.0594 208.214 57.836 207.322 57.836C206.429 57.836 205.598 58.0594 204.827 58.5064C204.057 58.9329 203.428 59.5728 202.942 60.426C202.475 61.2589 202.242 62.2542 202.242 63.4121C202.242 64.57 202.475 65.5857 202.942 66.4592C203.428 67.3327 204.057 68.003 204.827 68.4702C205.618 68.9171 206.45 69.1406 207.322 69.1406C208.214 69.1406 209.045 68.9171 209.816 68.4702C210.587 68.0233 211.205 67.3733 211.672 66.5201C212.158 65.6466 212.402 64.6309 212.402 63.4731Z" fill="#00BCD4"/>
<path d="M228.911 54.8194C230.229 54.8194 231.405 55.0937 232.439 55.6421C233.494 56.1906 234.315 57.0031 234.903 58.0798C235.491 59.1564 235.785 60.4565 235.785 61.98V71.8829H232.348V62.498C232.348 60.9948 231.973 59.8471 231.222 59.0548C230.472 58.2423 229.448 57.836 228.15 57.836C226.852 57.836 225.818 58.2423 225.047 59.0548C224.297 59.8471 223.922 60.9948 223.922 62.498V71.8829H220.454V55.0936H223.922V57.0133C224.49 56.3226 225.21 55.7843 226.082 55.3984C226.974 55.0124 227.917 54.8194 228.911 54.8194Z" fill="#00BCD4"/>
</svg>
